<?xml version="1.0" encoding="UTF-8"?>
<svg xmlns="http://www.w3.org/2000/svg" width="139" height="45" viewBox="0 0 139 45" fill="none">
  <path d="M61.7407 31.79C59.9162 31.79 58.38 31.3904 57.128 30.5914C55.8759 29.7755 54.9822 28.64 54.4427 27.1848L58.0382 25.0568C58.7671 26.7769 60.0439 27.639 61.8684 27.639C63.5199 27.639 64.3436 27.1344 64.3436 26.1208C64.3436 25.5531 64.0759 25.1283 63.5364 24.8423C62.9804 24.5059 61.9919 24.14 60.5669 23.7531C59.109 23.3451 57.8734 22.7605 56.8685 21.9993C55.7565 21.0783 55.2005 19.7746 55.2005 18.0881C55.2005 16.4017 55.7977 14.9928 56.9962 13.9666C58.2111 12.9362 59.6526 12.4232 61.3206 12.4232C62.8156 12.4232 64.1336 12.7848 65.2785 13.5124C66.4235 14.2232 67.3295 15.2577 67.9885 16.6246L64.4713 18.7274C63.8123 17.289 62.7621 16.5741 61.3206 16.5741C60.7111 16.5741 60.2333 16.7087 59.8874 16.9736C59.5414 17.2386 59.3643 17.575 59.3643 17.983C59.3643 18.4246 59.5744 18.8241 59.9903 19.1816C60.4434 19.5348 61.3289 19.9091 62.6468 20.3003L64.3395 20.8596C64.7719 21.0026 65.2785 21.2423 65.851 21.5788C66.477 21.8984 66.9465 22.2432 67.2595 22.6175C68.0915 23.5386 68.5115 24.6909 68.5115 26.0746C68.5115 27.8283 67.8855 29.233 66.6376 30.276C65.3856 31.2853 63.7547 31.7942 61.7407 31.7942V31.79ZM81.8885 25.2461L83.7624 18.1176H87.9304L83.7624 31.4199H80.1134L78.0294 24.3166L75.9455 31.4199H72.2965L68.1285 18.1176H72.2965L74.1704 25.2461L76.2008 18.1176H79.8498L81.8803 25.2461H81.8885ZM92.5555 16.2545C92.1024 16.7171 91.5588 16.9442 90.9163 16.9442C90.2738 16.9442 89.7178 16.7129 89.2483 16.2545C88.7952 15.775 88.5728 15.2073 88.5728 14.5512C88.5728 13.8951 88.7994 13.3358 89.2483 12.8774C89.7178 12.3979 90.2738 12.1582 90.9163 12.1582C91.5588 12.1582 92.1065 12.3979 92.5555 12.8774C93.025 13.34 93.2597 13.8951 93.2597 14.5512C93.2597 15.2073 93.025 15.775 92.5555 16.2545ZM92.8685 31.4157H88.96V18.1133H92.8685V31.4157ZM104.767 19.4718V18.1133H108.568V30.747C108.568 32.8414 107.901 34.4185 106.563 35.4825C105.245 36.5633 103.618 37.1059 101.69 37.1059C98.7374 37.1059 96.6781 36.0334 95.5167 33.8886L98.8527 31.9204C99.4622 33.039 100.451 33.5984 101.822 33.5984C102.761 33.5984 103.482 33.3503 103.984 32.854C104.507 32.3577 104.767 31.6554 104.767 30.7512V29.5274C103.848 30.6797 102.58 31.2559 100.965 31.2559C99.141 31.2559 97.613 30.5998 96.3816 29.2876C95.1666 27.9755 94.5571 26.3774 94.5571 24.4975C94.5571 22.6175 95.1666 21.032 96.3816 19.7367C97.5965 18.4077 99.1245 17.7432 100.965 17.7432C102.58 17.7432 103.848 18.3194 104.767 19.4718ZM99.3469 26.7348C99.9564 27.3026 100.71 27.5844 101.612 27.5844C102.514 27.5844 103.272 27.3026 103.877 26.7348C104.466 26.1839 104.763 25.4395 104.763 24.5017C104.763 23.5638 104.466 22.8152 103.877 22.2685C103.268 21.7007 102.514 21.419 101.612 21.419C100.71 21.419 99.9523 21.7007 99.3469 22.2685C98.7579 22.8194 98.4614 23.5638 98.4614 24.5017C98.4614 25.4395 98.7579 26.1881 99.3469 26.7348ZM120.475 19.4718V18.1133H124.276V30.747C124.276 32.8414 123.609 34.4185 122.271 35.4825C120.953 36.5633 119.326 37.1059 117.398 37.1059C114.445 37.1059 112.386 36.0334 111.225 33.8886L114.561 31.9204C115.17 33.039 116.159 33.5984 117.53 33.5984C118.469 33.5984 119.19 33.3503 119.692 32.854C120.215 32.3577 120.475 31.6554 120.475 30.7512V29.5274C119.556 30.6797 118.288 31.2559 116.674 31.2559C114.849 31.2559 113.321 30.5998 112.09 29.2876C110.875 27.9755 110.265 26.3774 110.265 24.4975C110.265 22.6175 110.875 21.032 112.09 19.7367C113.305 18.4077 114.833 17.7432 116.674 17.7432C118.288 17.7432 119.556 18.3194 120.475 19.4718ZM115.055 26.7348C115.664 27.3026 116.418 27.5844 117.32 27.5844C118.222 27.5844 118.98 27.3026 119.585 26.7348C120.174 26.1839 120.471 25.4395 120.471 24.5017C120.471 23.5638 120.174 22.8152 119.585 22.2685C118.976 21.7007 118.222 21.419 117.32 21.419C116.418 21.419 115.66 21.7007 115.055 22.2685C114.466 22.8194 114.169 23.5638 114.169 24.5017C114.169 25.4395 114.466 26.1881 115.055 26.7348ZM132.382 26.2554L134.832 18.1133H139L134.544 31.0161C133.815 33.0895 132.851 34.5825 131.653 35.4867C130.471 36.4077 128.959 36.8241 127.118 36.7358V33.0096C128.02 33.0096 128.716 32.8414 129.202 32.5049C129.688 32.1853 130.079 31.6175 130.376 30.8017L125.191 18.1133H129.49L132.382 26.2554Z" fill="white"></path>
  <path fill-rule="evenodd" clip-rule="evenodd" d="M43.7593 11.7336C43.4462 8.94112 42.7914 6.72056 41.3499 4.86168C40.7486 4.08785 40.0649 3.38972 39.3071 2.7757C37.4868 1.30374 35.3122 0.639252 32.5775 0.315421C29.8922 0 26.4903 0 22.1329 0H21.9393C17.5778 0 14.1759 0 11.4948 0.315421C8.76009 0.639252 6.58139 1.30374 4.76513 2.7757C4.00732 3.38972 3.31953 4.08785 2.71822 4.86168C1.28086 6.72056 0.626015 8.94112 0.308889 11.7336C0 14.4757 0 17.9495 0 22.3991V22.5967C0 27.0505 0 30.5243 0.308889 33.2621C0.626015 36.0547 1.28086 38.2794 2.71822 40.1341C3.31953 40.9079 4.00732 41.6103 4.76513 42.2243C6.58139 43.6921 8.76009 44.3607 11.4948 44.6846C14.1759 45 17.5778 45 21.9393 45H22.1329C26.4903 45 29.8922 45 32.5775 44.6846C35.3122 44.3607 37.4868 43.6921 39.3071 42.2243C40.0649 41.6103 40.7486 40.9079 41.3499 40.1341C42.7914 38.2794 43.4462 36.0547 43.7593 33.2621C44.0681 30.5243 44.0681 27.0505 44.0681 22.5967V22.3991C44.0681 17.9495 44.0681 14.4757 43.7593 11.7336ZM40.2256 39.2257C39.6943 39.9112 39.0889 40.5294 38.4175 41.072C35.3863 43.528 30.9342 43.528 22.0341 43.528C13.134 43.528 8.68596 43.528 5.65473 41.072C4.98341 40.5294 4.37799 39.9112 3.8467 39.2257C1.44148 36.1304 1.44148 31.5883 1.44148 22.5C1.44148 13.4117 1.44148 8.86542 3.8467 5.77009C4.37799 5.08458 4.98341 4.46636 5.65473 3.92383C8.68596 1.47196 13.134 1.47196 22.0341 1.47196C30.9342 1.47196 35.3863 1.47196 38.4175 3.92383C39.0889 4.46636 39.6943 5.08458 40.2256 5.77009C42.6267 8.86542 42.6267 13.4117 42.6267 22.5C42.6267 31.5883 42.6267 36.1304 40.2256 39.2257Z" fill="white"></path>
  <path fill-rule="evenodd" clip-rule="evenodd" d="M23.4055 17.9912V13.6342C23.4055 13.3524 23.1789 13.1211 22.903 13.1211C22.6271 13.1211 22.4005 13.3524 22.4005 13.6342V18.7524C22.4005 19.0426 22.6312 19.2739 22.9112 19.2739H23.4013C30.5223 19.2739 31.2636 19.6524 30.8188 21.1874C30.7982 21.2631 30.7735 21.3346 30.7488 21.4145C30.7488 21.4314 30.7405 21.4482 30.7364 21.4608C28.8666 27.2183 23.8091 34.4225 22.314 36.4832C22.104 36.7734 21.6798 36.7734 21.4698 36.4832C20.5678 35.2384 18.3603 32.1094 16.3463 28.5599C16.2104 28.236 16.1445 27.479 18.3809 27.479H21.1156C21.2679 27.479 21.3915 27.6052 21.3915 27.7608V30.015C21.3915 30.2842 21.5851 30.5323 21.8487 30.5533C22.0052 30.5659 22.1452 30.5071 22.2482 30.4019C22.3429 30.3094 22.3964 30.1832 22.3964 30.0402V26.9828C22.3964 26.6926 22.1617 26.4529 21.8775 26.4529H16.3504C15.3867 26.4529 14.8019 25.6117 14.4188 24.8463C13.2162 22.2725 12.3555 19.7323 12.3555 17.7304C12.3555 12.6038 16.3587 7.99023 21.8857 7.99023C26.8074 7.99023 30.5346 11.6449 31.2924 16.065C31.2965 16.1029 31.3254 16.2711 31.3295 16.3047C31.5272 18.4748 25.9836 18.2267 23.6526 18.2393C23.5125 18.2393 23.4055 18.1257 23.4055 17.987V17.9912Z" fill="white"></path>
</svg>
